<svg width="134" height="64" viewBox="0 0 134 64" fill="none" xmlns="http://www.w3.org/2000/svg">
<path d="M53.0854 26.5102C53.0854 27.6563 53.0128 28.7847 52.8712 29.8929C52.1183 35.7958 49.4216 41.0934 45.4419 45.123L45.4234 45.1424L45.3101 45.2546L45.2544 45.3112L45.1978 45.3669L30.4533 60.0942L26.5427 64L22.633 60.0942L12.076 49.5511L15.9867 45.6452L23.1567 52.8065L26.5427 56.1892L41.2818 41.4681C41.3225 41.4292 41.3615 41.3903 41.4013 41.3506C41.4411 41.3108 41.48 41.2719 41.5189 41.2313C45.2526 37.4438 47.5556 32.2452 47.5556 26.5102C47.5556 22.9251 46.6558 19.5503 45.0695 16.598C44.5315 15.5977 43.9149 14.6451 43.2283 13.7499C42.1011 12.2839 40.7864 10.9707 39.3186 9.84495L43.2539 5.91437C44.6899 7.07551 46.0011 8.38512 47.1637 9.81932C47.8706 10.688 48.5227 11.6017 49.1155 12.5569C51.6326 16.6095 53.0854 21.3901 53.0854 26.5102Z" fill="#E65C17"/>
<path d="M44.2378 26.5102C44.2378 31.3907 42.2577 35.8091 39.0549 39.0071C35.8529 42.206 31.4292 44.1837 26.5427 44.1837C23.8804 44.1837 21.3562 43.5969 19.0913 42.5445L23.3921 38.2489C24.3971 38.5176 25.4526 38.6607 26.5427 38.6607C29.9021 38.6607 32.943 37.3008 35.1451 35.1022C37.3464 32.9027 38.7081 29.8655 38.7081 26.5102C38.7081 25.4215 38.5647 24.3673 38.2958 23.3635C37.9834 22.1952 37.5004 21.0959 36.8757 20.0947L28.498 28.4631L20.1193 36.8306L16.1379 40.8072L13.7668 43.1754L13.6403 43.3018L9.8314 47.106C9.15633 46.5608 8.50958 45.982 7.8929 45.3722L7.65667 45.1372C7.04708 44.5213 6.46756 43.8753 5.92167 43.201C5.21475 42.3324 4.56268 41.4187 3.9699 40.4634C2.01636 37.3175 0.704265 33.7334 0.214111 29.8929C0.07255 28.7848 0 27.6563 0 26.5102C0 19.1899 2.97101 12.5623 7.77435 7.76484C12.5777 2.96738 19.2134 0 26.5427 0C31.6689 0 36.4555 1.45099 40.513 3.96504L36.467 8.00608C33.511 6.42166 30.1321 5.52296 26.5427 5.52296C20.7404 5.52296 15.4868 7.87177 11.6841 11.6698C7.8814 15.4678 5.52972 20.7151 5.52972 26.5102C5.52972 30.0953 6.42952 33.47 8.01588 36.4224C8.55382 37.4227 9.17049 38.3753 9.85706 39.2705L12.2282 36.9022L16.2096 32.9257L24.5882 24.5582L32.966 16.1898L36.9474 12.2133C38.4462 13.3028 39.7662 14.6213 40.8571 16.1182C41.5278 17.0381 42.1126 18.0261 42.5966 19.0679C43.6503 21.3301 44.2378 23.8512 44.2378 26.5102Z" fill="#E65C17"/>
<path d="M71.1845 17.5527V26.7872C71.1845 27.3829 71.0858 27.9291 70.8883 28.4255C70.7032 28.9096 70.4255 29.3254 70.0552 29.6729C69.6849 30.0081 69.2344 30.2749 68.7037 30.4735C68.1853 30.6597 67.5929 30.7528 66.9264 30.7528C66.2846 30.7528 65.7169 30.6659 65.2232 30.4921C64.7418 30.3184 64.3222 30.0701 63.9642 29.7474C63.6187 29.4247 63.3348 29.0399 63.1126 28.5931C62.8905 28.1463 62.7362 27.6498 62.6498 27.1037L65.2787 26.5824C65.4885 27.7119 66.0254 28.2766 66.8894 28.2766C67.2967 28.2766 67.6423 28.1463 67.9261 27.8856C68.2224 27.625 68.3705 27.2154 68.3705 26.6568V19.8241H64.4456V17.5527H71.1845Z" fill="#E65C17"/>
<path d="M76.62 17.5527V25.5212C76.62 26.4396 76.799 27.1285 77.1569 27.5877C77.5148 28.0346 78.1134 28.258 78.9527 28.258C79.792 28.258 80.3906 28.0346 80.7485 27.5877C81.1065 27.1285 81.2854 26.4396 81.2854 25.5212V17.5527H84.0254V25.2233C84.0254 26.179 83.9329 27.0106 83.7477 27.7181C83.5749 28.4131 83.2849 28.9903 82.8776 29.4495C82.4703 29.8963 81.9457 30.2315 81.3039 30.4549C80.6621 30.6659 79.8784 30.7714 78.9527 30.7714C78.027 30.7714 77.2433 30.6659 76.6015 30.4549C75.9597 30.2315 75.4351 29.8963 75.0278 29.4495C74.6205 28.9903 74.3243 28.4131 74.1392 27.7181C73.9664 27.0106 73.88 26.179 73.88 25.2233V17.5527H76.62Z" fill="#E65C17"/>
<path d="M86.8087 30.548V17.5527H89.6227V28.0346H94.5474V30.548H86.8087Z" fill="#E65C17"/>
<path d="M96.1261 30.548V28.2952H97.7923V19.8055H96.1261V17.5527H102.273V19.8055H100.606V28.2952H102.273V30.548H96.1261Z" fill="#E65C17"/>
<path d="M112.578 30.548L111.652 27.4574H107.339L106.413 30.548H103.562L107.82 17.5527H111.301L115.503 30.548H112.578ZM109.523 20.122H109.431L108.005 25.0557H110.967L109.523 20.122Z" fill="#E65C17"/>
<path d="M67.7966 47.5274C66.6611 47.5274 65.6983 47.335 64.9084 46.9503C64.1185 46.5531 63.4459 46.0442 62.8905 45.4236L64.7418 43.5432C65.6181 44.5362 66.6981 45.0326 67.9817 45.0326C68.6729 45.0326 69.1851 44.8899 69.5183 44.6044C69.8516 44.3189 70.0182 43.9404 70.0182 43.4687C70.0182 43.1088 69.9194 42.8109 69.722 42.5751C69.5245 42.3268 69.1234 42.1593 68.5186 42.0724L67.2411 41.9048C65.8711 41.7311 64.8652 41.3153 64.2234 40.6574C63.594 39.9996 63.2792 39.1246 63.2792 38.0323C63.2792 37.449 63.3903 36.9153 63.6125 36.4312C63.8346 35.9471 64.1494 35.5313 64.5567 35.1838C64.9763 34.8363 65.4824 34.5694 66.0748 34.3832C66.6796 34.1847 67.3646 34.0854 68.1298 34.0854C69.1048 34.0854 69.9626 34.2405 70.7032 34.5508C71.4437 34.8611 72.0794 35.3141 72.6101 35.9099L70.7402 37.8089C70.4316 37.449 70.0552 37.1573 69.6109 36.9339C69.1789 36.6981 68.6297 36.5801 67.9632 36.5801C67.3337 36.5801 66.8647 36.6919 66.5561 36.9153C66.2476 37.1387 66.0933 37.449 66.0933 37.8462C66.0933 38.293 66.2106 38.6157 66.4451 38.8143C66.6919 39.0129 67.0869 39.1556 67.6299 39.2425L68.9074 39.4473C70.2403 39.6583 71.2277 40.0741 71.8695 40.6947C72.5113 41.3029 72.8322 42.1717 72.8322 43.3012C72.8322 43.9218 72.7212 44.4927 72.499 45.014C72.2768 45.5353 71.9498 45.9821 71.5178 46.3545C71.0981 46.7269 70.5736 47.0185 69.9441 47.2295C69.3147 47.4281 68.5988 47.5274 67.7966 47.5274Z" fill="#E65C17"/>
<path d="M80.3492 47.5274C79.4976 47.5274 78.72 47.3847 78.0165 47.0992C77.313 46.8137 76.7144 46.3917 76.2207 45.8332C75.727 45.2622 75.3444 44.561 75.0728 43.7294C74.8013 42.8854 74.6655 41.911 74.6655 40.8064C74.6655 39.7017 74.8013 38.7336 75.0728 37.902C75.3444 37.058 75.727 36.3567 76.2207 35.7982C76.7144 35.2272 77.313 34.799 78.0165 34.5136C78.72 34.2281 79.4976 34.0854 80.3492 34.0854C81.2008 34.0854 81.9784 34.2281 82.6819 34.5136C83.3854 34.799 83.984 35.2272 84.4777 35.7982C84.9714 36.3567 85.354 37.058 85.6256 37.902C85.8971 38.7336 86.0329 39.7017 86.0329 40.8064C86.0329 41.911 85.8971 42.8854 85.6256 43.7294C85.354 44.561 84.9714 45.2622 84.4777 45.8332C83.984 46.3917 83.3854 46.8137 82.6819 47.0992C81.9784 47.3847 81.2008 47.5274 80.3492 47.5274ZM80.3492 45.014C81.2008 45.014 81.8611 44.7347 82.3301 44.1762C82.8115 43.6177 83.0522 42.8171 83.0522 41.7745V39.8383C83.0522 38.7957 82.8115 37.9951 82.3301 37.4366C81.8611 36.878 81.2008 36.5988 80.3492 36.5988C79.4976 36.5988 78.8311 36.878 78.3497 37.4366C77.8807 37.9951 77.6462 38.7957 77.6462 39.8383V41.7745C77.6462 42.8171 77.8807 43.6177 78.3497 44.1762C78.8311 44.7347 79.4976 45.014 80.3492 45.014Z" fill="#E65C17"/>
<path d="M91.1957 47.304H88.3816V34.3088H94.5096C95.102 34.3088 95.6389 34.4081 96.1203 34.6067C96.6016 34.8052 97.0089 35.0907 97.3422 35.4631C97.6878 35.823 97.9531 36.2574 98.1383 36.7663C98.3234 37.2752 98.416 37.8399 98.416 38.4605C98.416 39.3418 98.2185 40.1113 97.8235 40.7692C97.4409 41.427 96.8547 41.9048 96.0647 42.2027L98.6011 47.304H95.4723L93.2137 42.5378H91.1957V47.304ZM94.1578 40.1548C94.5775 40.1548 94.9046 40.0493 95.1391 39.8383C95.3859 39.6148 95.5093 39.2921 95.5093 38.8701V38.051C95.5093 37.6289 95.3859 37.3124 95.1391 37.1014C94.9046 36.878 94.5775 36.7663 94.1578 36.7663H91.1957V40.1548H94.1578Z" fill="#E65C17"/>
<path d="M100.357 47.304V45.0512H102.023V36.5615H100.357V34.3088H106.503V36.5615H104.837V45.0512H106.503V47.304H100.357Z" fill="#E65C17"/>
<path d="M112.791 41.1601L111.551 38.5536H111.495V47.304H108.848V34.3088H111.921L115.457 40.4526L116.698 43.0591H116.753V34.3088H119.401V47.304H116.327L112.791 41.1601Z" fill="#E65C17"/>
<path d="M130.206 47.304L129.28 44.2134H124.966L124.041 47.304H121.19L125.448 34.3088H128.928L133.131 47.304H130.206ZM127.151 36.878H127.058L125.633 41.8118H128.595L127.151 36.878Z" fill="#E65C17"/>
</svg>
