<svg width="96" height="96" viewBox="0 0 96 96" fill="none" xmlns="http://www.w3.org/2000/svg">
<path d="M85.83 9.82105C85.3652 9.41968 84.7997 9.15274 84.1944 9.049C83.5891 8.94525 82.9669 9.00863 82.395 9.2323L6.3975 38.9735C5.32044 39.3924 4.40859 40.1497 3.79922 41.1316C3.18985 42.1135 2.91594 43.2668 3.01873 44.4179C3.12153 45.5689 3.59546 46.6554 4.36918 47.5138C5.1429 48.3722 6.17453 48.956 7.30875 49.1773L27 53.0435V74.9998C26.9961 76.1957 27.3515 77.3653 28.0202 78.3569C28.6888 79.3484 29.6398 80.1163 30.75 80.5611C31.8585 81.0137 33.0775 81.1223 34.2485 80.8729C35.4196 80.6234 36.4885 80.0274 37.3163 79.1623L46.8113 69.3148L61.875 82.4998C62.9618 83.4638 64.3635 83.9973 65.8163 83.9998C66.4529 83.9993 67.0855 83.8993 67.6913 83.7036C68.6811 83.3895 69.5713 82.8216 70.2733 82.0564C70.9754 81.2912 71.4647 80.3554 71.6925 79.3423L86.9138 13.1248C87.0499 12.5276 87.021 11.9046 86.8301 11.3226C86.6391 10.7406 86.2934 10.2216 85.83 9.82105ZM62.9025 23.321L29.3063 47.381L10.7063 43.7323L62.9025 23.321ZM33 74.9998V57.1948L42.2963 65.3473L33 74.9998ZM65.8238 77.9998L34.8188 50.8123L79.4438 18.8285L65.8238 77.9998Z" fill="black"/>
</svg>
