<svg width="96" height="96" viewBox="0 0 96 96" fill="none" xmlns="http://www.w3.org/2000/svg">
<path fill-rule="evenodd" clip-rule="evenodd" d="M71.9712 72C71.5298 72 71.1421 71.7097 71.0046 71.2902C68.8229 64.6325 64.4382 59.1581 58.6099 56.4907C58.6005 56.4864 58.5912 56.4821 58.5819 56.4779C58.1713 56.2907 57.7535 56.1175 57.3289 55.9588C56.1727 55.5266 54.9654 55.2018 53.7125 54.9959C53.1263 54.8995 52.6099 55.3647 52.6099 55.9588V71C52.6099 71.5523 52.1621 72 51.6099 72H51.2153C26.8979 72 12.908 54.3931 12.0254 25.0273C12.0086 24.4677 12.4598 24 13.0197 24H23.3405C23.8856 24 24.3299 24.4457 24.3466 24.9905C24.823 40.4805 29.6714 49.5022 35.0067 53.9984C35.1109 54.0863 35.2154 54.1724 35.32 54.2569C36.1483 54.9253 36.9863 55.4863 37.8198 55.9471C38.4747 56.3091 39.1268 56.6093 39.7691 56.851C40.3842 57.0825 41.0067 56.6043 41.0067 55.9471V25C41.0067 24.4477 41.4544 24 42.0067 24H51.6099C52.1621 24 52.6099 24.4477 52.6099 25V41.8574C52.6099 42.455 53.1311 42.922 53.7139 42.7905C54.6004 42.5905 55.4881 42.2751 56.367 41.8574C57.0703 41.5232 57.7679 41.1236 58.4546 40.6654C58.5064 40.6309 58.5582 40.596 58.6099 40.5607C63.3657 37.3188 67.5761 31.2797 69.4916 24.7413C69.6191 24.3059 70.0143 24 70.468 24H80.1228C80.74 24 81.2108 24.5544 81.0882 25.1594C80.833 26.4187 80.5075 27.6404 80.1228 28.8219C79.9953 29.2136 79.8612 29.6009 79.7211 29.9836C79.7191 29.9891 79.7171 29.9945 79.7151 30C77.5999 35.7686 74.1 40.5106 70.6026 43.8969C70.5966 43.9027 70.5906 43.9085 70.5846 43.9143C70.1273 44.3565 69.6701 44.7754 69.2161 45.1705C68.4649 45.824 67.7225 46.4121 67.0028 46.9314C66.3678 47.3895 66.4129 48.3878 67.0876 48.7851C67.8436 49.2302 68.6381 49.7446 69.4553 50.3305C69.9424 50.6799 70.4376 51.0547 70.9375 51.4556C70.944 51.4608 70.9506 51.4661 70.9572 51.4714C74.8834 54.6245 79.094 59.3817 81.9529 66C81.9608 66.0182 81.9686 66.0363 81.9764 66.0545C82.2324 66.6495 82.4775 67.2596 82.7104 67.8848C83.0546 68.8085 83.3723 69.7653 83.6597 70.7559C83.8418 71.3834 83.3637 72 82.7104 72H71.9712ZM75.5248 47.4627C80.9171 52.0215 86.5189 59.0795 89.422 69.0838C90.7556 73.6793 87.2241 78 82.7104 78H71.9712C68.847 78 66.2201 75.9573 65.303 73.1586C63.9093 68.9055 61.5322 65.5656 58.6099 63.4268V71C58.6099 74.866 55.4758 78 51.6099 78H51.2153C37.4685 78 26.112 72.9472 18.2006 63.3399C10.4356 53.9104 6.49426 40.7165 6.02814 25.2076C5.91028 21.286 9.05452 18 13.0197 18H23.3405C27.2438 18 30.231 21.1383 30.3438 24.8061C30.6344 34.2549 32.6269 40.544 35.0067 44.6351V25C35.0067 21.134 38.1407 18 42.0067 18H51.6099C55.4758 18 58.6099 21.134 58.6099 25V32.5131C60.8382 29.9279 62.7047 26.5665 63.7336 23.0545C64.5842 20.151 67.2591 18 70.468 18H80.1228C84.3793 18 87.8747 21.8804 86.9686 26.3512C85.1639 35.2556 80.429 42.4751 75.5248 47.4627Z" fill="black"/>
</svg>
